# xmcd
#
# Track frame offsets:
#	183
#	19770
#	36730
#	47798
#	59190
#	71895
#	88978
#	103973
#	116330
#	133655
#	143118
#	151545
#	169140
#	180580
#	194678
#
# Disc length: 2753 seconds
#
# Revision: 0
# Processed by: cddbd v1.4PL0 Copyright (c) Steve Scherf et al.
# Submitted via: EasyCDDAExtractor 5.0.2.1
#
DISCID=e60abf0f
DTITLE=Steve Waring - Le ramoneur rouge
DYEAR=1991
DGENRE=enfant
TTITLE0=Le ramoneur rouge
TTITLE1=Mimi
TTITLE2=toboggan
TTITLE3=Tourterelle
TTITLE4=Rouge queue
TTITLE5=Petite pouliche
TTITLE6=Souffle
TTITLE7=Papa ours
TTITLE8=Pouce
TTITLE9=Ne me tap'pas
TTITLE10=Rouge queue canon
TTITLE11=tout faux
TTITLE12=La mere exagère
TTITLE13=Flute a eau
TTITLE14=Pille do
EXTD=
EXTT0=
EXTT1=
EXTT2=
EXTT3=
EXTT4=
EXTT5=
EXTT6=
EXTT7=
EXTT8=
EXTT9=
EXTT10=
EXTT11=
EXTT12=
EXTT13=
EXTT14=
PLAYORDER=
